<svg width="165" height="32" viewBox="0 0 165 32" fill="none" xmlns="http://www.w3.org/2000/svg">
<path d="M54.0082 9.37706C52.312 7.63892 50.1414 6.75726 47.551 6.75726C44.9186 6.75726 42.6935 7.64313 40.9427 9.39386C39.192 11.1446 38.3062 13.3739 38.3062 16.0189C38.3062 18.6639 39.192 20.8975 40.9427 22.6608C42.6935 24.4199 44.9144 25.3142 47.551 25.3142C50.0953 25.3142 52.2448 24.4451 53.941 22.728L54.1257 22.5391L54.5162 24.8818H57.2619V7.1897H54.6463L54.1845 9.56179L54.0082 9.37706ZM52.1231 20.3391C51.0063 21.4811 49.5621 22.0604 47.8365 22.0604C46.111 22.0604 44.6583 21.4811 43.5164 20.3391C42.3744 19.1971 41.795 17.7529 41.795 16.0357C41.795 14.9064 42.0595 13.8736 42.5759 12.9583C43.0965 12.043 43.8228 11.3167 44.7381 10.7961C45.6533 10.2755 46.6904 10.0152 47.8155 10.0152C49.5537 10.0152 50.9979 10.5862 52.1189 11.7198C53.2357 12.8492 53.8024 14.2976 53.8024 16.0231C53.8066 17.7445 53.2399 19.1971 52.1231 20.3391Z" fill="#00142B"/>
<path d="M75.0885 9.47359C73.3923 7.66828 71.2217 6.75302 68.6313 6.75302C66.1962 6.75302 64.1054 7.61369 62.4219 9.30985C60.7383 11.006 59.8818 13.1094 59.8818 15.5697C59.8818 18.0257 60.7341 20.1291 62.4219 21.8127C64.1054 23.4963 66.1962 24.3527 68.6313 24.3527C70.8942 24.3527 72.8675 23.6474 74.5007 22.2577L74.7232 22.0688V23.1604C74.7232 24.8733 74.2068 26.2504 73.1866 27.2496C72.1664 28.2447 70.8271 28.7527 69.1981 28.7527C68.0267 28.7527 66.9478 28.4798 65.9863 27.9382C65.0501 27.4092 64.3951 26.6535 64.0467 25.692H60.6208C61.0952 27.5687 62.0818 29.0591 63.5554 30.1213C65.0753 31.2171 66.9855 31.7755 69.2317 31.7755C71.0412 31.7755 72.6324 31.4061 73.9591 30.6797C75.2816 29.9534 76.3102 28.8954 77.0155 27.5435C77.725 26.1832 78.0819 24.5417 78.0819 22.665V7.19805H75.8946L75.2606 9.66251L75.0885 9.47359ZM74.2992 17.8158C74.0137 18.517 73.619 19.1215 73.1194 19.6085C72.624 20.0955 72.0152 20.486 71.3141 20.7673C70.613 21.0486 69.8572 21.1913 69.0679 21.1913C67.4432 21.1913 66.0703 20.6539 64.9997 19.5875C63.9249 18.5253 63.3791 17.1735 63.3791 15.5655C63.3791 13.9617 63.9249 12.6014 64.9997 11.5308C66.0745 10.456 67.4432 9.91023 69.0721 9.91023C70.6969 9.91023 72.0614 10.4476 73.1278 11.514C74.19 12.5762 74.7316 13.9407 74.7316 15.5655C74.7232 16.359 74.5804 17.1147 74.2992 17.8158Z" fill="#00142B"/>
<path d="M94.9088 7.39119H93.8844L88.6238 19.5414L84.4884 7.18967H80.9785L86.8773 24.8817H89.6818L94.3966 13.7266L99.1114 24.8817H101.916L107.848 7.18967H104.439L100.232 19.6379L94.9088 7.39119Z" fill="#00142B"/>
<path d="M124.462 9.37703C122.766 7.63889 120.595 6.75723 118.005 6.75723C115.372 6.75723 113.147 7.6431 111.396 9.39383C109.646 11.1446 108.76 13.3739 108.76 16.0189C108.76 18.6639 109.646 20.8975 111.401 22.6608C113.151 24.4199 115.372 25.3142 118.009 25.3142C120.553 25.3142 122.703 24.4451 124.399 22.728L124.584 22.539L124.974 24.8817H127.72V7.18967H125.104L124.642 9.56176L124.462 9.37703ZM122.573 20.3391C121.456 21.481 120.011 22.0604 118.286 22.0604C116.56 22.0604 115.108 21.481 113.966 20.3391C112.824 19.1971 112.244 17.7529 112.244 16.0357C112.244 14.9063 112.509 13.8735 113.025 12.9583C113.546 12.043 114.272 11.3167 115.188 10.7961C116.103 10.2755 117.14 10.0152 118.265 10.0152C120.003 10.0152 121.452 10.5862 122.568 11.7197C123.685 12.8491 124.252 14.2976 124.252 16.0231C124.26 17.7445 123.693 19.1971 122.573 20.3391Z" fill="#00142B"/>
<path d="M134.177 7.18967H130.453L138.207 23.723L137.779 24.613C137.111 26.0867 136.482 27.0733 135.915 27.5519C135.34 28.0347 134.437 28.2824 133.232 28.2824H131.838V31.3389H133.534C135.289 31.3389 136.712 30.898 137.758 30.0248C138.812 29.1431 139.87 27.5561 140.898 25.2974L149.064 7.19387H145.403L139.962 19.936L134.177 7.18967Z" fill="#00142B"/>
<path d="M163.666 16.8208C163.465 16.4933 163.167 16.1952 162.776 15.9307C162.373 15.6578 162.016 15.4437 161.71 15.2926C161.407 15.1414 160.979 14.9945 160.438 14.8559C159.879 14.709 159.459 14.6124 159.166 14.5579L157.818 14.306C157.356 14.2388 156.999 14.1842 156.756 14.138C156.508 14.0918 156.193 14.0247 155.815 13.9365C155.429 13.8483 155.135 13.7476 154.934 13.6426C154.74 13.5418 154.535 13.4075 154.316 13.248C154.09 13.08 153.922 12.8827 153.825 12.6602C153.729 12.4461 153.682 12.19 153.682 11.9087C153.682 11.2201 154.006 10.6575 154.64 10.2335C155.257 9.82206 156.101 9.61213 157.142 9.61213C158.25 9.61213 159.14 9.85144 159.783 10.3217C160.404 10.7793 160.744 11.4216 160.799 12.2403H164.023C163.968 10.603 163.339 9.27206 162.146 8.28544C160.912 7.26942 159.254 6.75302 157.209 6.75302C155.164 6.75302 153.498 7.24843 152.255 8.22246C151.021 9.1881 150.395 10.4728 150.395 12.043C150.395 12.6056 150.466 13.122 150.605 13.5838C150.744 14.0457 150.92 14.4445 151.121 14.7636C151.323 15.0785 151.608 15.3681 151.965 15.6242C152.335 15.8846 152.683 16.0987 152.998 16.2624C153.309 16.4219 153.72 16.5773 154.22 16.72C154.715 16.8586 155.139 16.9677 155.475 17.0349C155.811 17.1021 156.26 17.1819 156.802 17.2658C157.327 17.354 157.759 17.4338 158.091 17.5009C158.418 17.5681 158.792 17.6731 159.203 17.8032C159.623 17.9376 159.955 18.0929 160.186 18.2525C160.421 18.4204 160.627 18.6387 160.79 18.9074C160.958 19.1845 161.042 19.5036 161.042 19.8604C161.042 20.381 160.874 20.8345 160.543 21.2123C160.219 21.5818 159.778 21.8631 159.237 22.0478C158.704 22.2283 158.091 22.3207 157.415 22.3207C156.26 22.3207 155.311 22.0604 154.593 21.5482C153.897 21.0486 153.506 20.3475 153.431 19.4616H150.072C150.143 21.2123 150.819 22.6314 152.083 23.681C153.38 24.7642 155.131 25.3142 157.285 25.3142C159.438 25.3142 161.189 24.7978 162.491 23.7776C163.78 22.7657 164.435 21.3929 164.435 19.6925C164.435 19.1089 164.359 18.5631 164.208 18.0677C164.048 17.5765 163.868 17.1567 163.666 16.8208Z" fill="#00142B"/>
<path d="M34.5989 24.8817V0.224487L8.91309 22.4466V24.8817H11.6882L30.9421 8.22664V24.8817H34.5989Z" fill="url(#paint0_linear_19_19)"/>
<path d="M25.6858 24.8817V22.4466L0 0.224487V24.8817H3.65681V8.22664L22.9107 24.8817H25.6858Z" fill="url(#paint1_linear_19_19)"/>
<defs>
<linearGradient id="paint0_linear_19_19" x1="8.91292" y1="12.5538" x2="34.6005" y2="12.5538" gradientUnits="userSpaceOnUse">
<stop offset="0.1747" stop-color="#014FA1"/>
<stop offset="0.2833" stop-color="#015CAF"/>
<stop offset="0.5893" stop-color="#017BD3"/>
<stop offset="0.8392" stop-color="#018EE9"/>
<stop offset="1" stop-color="#0195F1"/>
</linearGradient>
<linearGradient id="paint1_linear_19_19" x1="-0.00176333" y1="12.5538" x2="25.6858" y2="12.5538" gradientUnits="userSpaceOnUse">
<stop offset="0.026" stop-color="#014FA1"/>
<stop offset="0.1541" stop-color="#015CAF"/>
<stop offset="0.5154" stop-color="#017BD3"/>
<stop offset="0.8102" stop-color="#018EE9"/>
<stop offset="1" stop-color="#0195F1"/>
</linearGradient>
</defs>
</svg>
