<svg width="31" height="31" viewBox="0 0 31 31" fill="none" xmlns="http://www.w3.org/2000/svg">
<path d="M3.11133 11.0752H14.7444M8.00948 20.8715H10.4586M13.5199 20.8715H18.418" stroke="white" stroke-miterlimit="10" stroke-linecap="round" stroke-linejoin="round"/>
<path d="M27.6021 15.3978V20.3939C27.6021 24.6921 26.5122 25.7696 22.1651 25.7696H8.54827C4.20117 25.7696 3.11133 24.6921 3.11133 20.3939V10.3282C3.11133 6.03011 4.20117 4.95251 8.54827 4.95251H18.418" stroke="white" stroke-linecap="round" stroke-linejoin="round"/>
<path d="M24.0259 5.724L19.4828 10.267C19.3114 10.4385 19.14 10.7813 19.1032 11.0262L18.8583 12.7651C18.7726 13.3896 19.2134 13.8304 19.8379 13.7447L21.5768 13.4998C21.8217 13.4631 22.1646 13.2916 22.336 13.1202L26.879 8.57717C27.6627 7.79346 28.0301 6.88731 26.879 5.73624C25.7157 4.57293 24.8096 4.94029 24.0259 5.724V5.724Z" stroke="white" stroke-width="1.5" stroke-miterlimit="10" stroke-linecap="round" stroke-linejoin="round"/>
<path d="M23.377 6.37292C23.7688 7.75665 24.8464 8.83424 26.2179 9.21385" stroke="white" stroke-width="1.5" stroke-miterlimit="10" stroke-linecap="round" stroke-linejoin="round"/>
</svg>
