<svg width="21" height="20" viewBox="0 0 21 20" fill="none" xmlns="http://www.w3.org/2000/svg">
<path d="M13.625 10.0508C13.625 10.6688 13.4417 11.273 13.0983 11.7869C12.755 12.3008 12.2669 12.7014 11.6959 12.9379C11.1249 13.1744 10.4965 13.2363 9.89034 13.1157C9.28415 12.9952 8.72733 12.6975 8.29029 12.2605C7.85325 11.8235 7.55562 11.2666 7.43505 10.6604C7.31447 10.0542 7.37635 9.42591 7.61288 8.8549C7.8494 8.28388 8.24994 7.79582 8.76384 7.45244C9.27775 7.10906 9.88193 6.92578 10.5 6.92578C11.328 6.92836 12.1214 7.25842 12.7069 7.84392C13.2924 8.42941 13.6224 9.22277 13.625 10.0508V10.0508ZM20.2656 5.75391V14.3477C20.2656 15.7981 19.6895 17.1891 18.6639 18.2146C17.6383 19.2402 16.2473 19.8164 14.7969 19.8164H6.20312C4.75272 19.8164 3.36172 19.2402 2.33613 18.2146C1.31055 17.1891 0.734375 15.7981 0.734375 14.3477V5.75391C0.734375 4.3035 1.31055 2.91251 2.33613 1.88692C3.36172 0.861326 4.75272 0.285156 6.20312 0.285156H14.7969C16.2473 0.285156 17.6383 0.861326 18.6639 1.88692C19.6895 2.91251 20.2656 4.3035 20.2656 5.75391V5.75391ZM15.1875 10.0508C15.1875 9.12368 14.9126 8.2174 14.3975 7.44655C13.8824 6.67569 13.1504 6.07488 12.2938 5.7201C11.4373 5.36531 10.4948 5.27248 9.58551 5.45335C8.67623 5.63422 7.841 6.08066 7.18544 6.73622C6.52988 7.39178 6.08344 8.22701 5.90257 9.1363C5.7217 10.0456 5.81453 10.9881 6.16932 11.8446C6.5241 12.7011 7.12491 13.4332 7.89576 13.9483C8.66662 14.4634 9.5729 14.7383 10.5 14.7383C11.7432 14.7383 12.9355 14.2444 13.8146 13.3653C14.6936 12.4863 15.1875 11.294 15.1875 10.0508ZM16.75 4.97266C16.75 4.74088 16.6813 4.51431 16.5525 4.3216C16.4237 4.12888 16.2407 3.97868 16.0266 3.88998C15.8124 3.80129 15.5768 3.77808 15.3495 3.8233C15.1222 3.86852 14.9134 3.98013 14.7495 4.14402C14.5856 4.30791 14.474 4.51671 14.4288 4.74403C14.3836 4.97136 14.4068 5.20698 14.4955 5.42111C14.5842 5.63525 14.7344 5.81827 14.9271 5.94703C15.1198 6.0758 15.3464 6.14453 15.5781 6.14453C15.8889 6.14453 16.187 6.02107 16.4068 5.8013C16.6265 5.58153 16.75 5.28346 16.75 4.97266Z" fill="#00142B"/>
</svg>
