<svg width="31" height="31" viewBox="0 0 31 31" fill="none" xmlns="http://www.w3.org/2000/svg">
<path d="M15.3611 19.0347C16.3354 19.0347 17.2698 18.6477 17.9587 17.9587C18.6477 17.2698 19.0347 16.3354 19.0347 15.3611C19.0347 14.3868 18.6477 13.4524 17.9587 12.7635C17.2698 12.0745 16.3354 11.6875 15.3611 11.6875C14.3868 11.6875 13.4524 12.0745 12.7635 12.7635C12.0745 13.4524 11.6875 14.3868 11.6875 15.3611C11.6875 16.3354 12.0745 17.2698 12.7635 17.9587C13.4524 18.6477 14.3868 19.0347 15.3611 19.0347V19.0347Z" stroke="white" stroke-miterlimit="10" stroke-linecap="round" stroke-linejoin="round"/>
<path d="M3.11621 16.4386V14.2834C3.11621 13.0099 4.15707 11.9568 5.44283 11.9568C7.65924 11.9568 8.5654 10.3894 7.45107 8.46688C6.81431 7.36479 7.19392 5.93208 8.30825 5.29532L10.4267 4.08303C11.3941 3.5075 12.6431 3.85037 13.2186 4.81775L13.3533 5.05042C14.4554 6.97294 16.2677 6.97294 17.3821 5.05042L17.5168 4.81775C18.0923 3.85037 19.3413 3.5075 20.3087 4.08303L22.4272 5.29532C23.5415 5.93208 23.9211 7.36479 23.2843 8.46688C22.17 10.3894 23.0762 11.9568 25.2926 11.9568C26.5661 11.9568 27.6192 12.9977 27.6192 14.2834V16.4386C27.6192 17.7121 26.5783 18.7652 25.2926 18.7652C23.0762 18.7652 22.17 20.3326 23.2843 22.2552C23.9211 23.3695 23.5415 24.79 22.4272 25.4267L20.3087 26.639C19.3413 27.2145 18.0923 26.8717 17.5168 25.9043L17.3821 25.6716C16.28 23.7491 14.4677 23.7491 13.3533 25.6716L13.2186 25.9043C12.6431 26.8717 11.3941 27.2145 10.4267 26.639L8.30825 25.4267C7.77447 25.1194 7.38443 24.6128 7.22373 24.0182C7.06303 23.4236 7.14479 22.7895 7.45107 22.2552C8.5654 20.3326 7.65924 18.7652 5.44283 18.7652C4.15707 18.7652 3.11621 17.7121 3.11621 16.4386V16.4386Z" stroke="white" stroke-miterlimit="10" stroke-linecap="round" stroke-linejoin="round"/>
</svg>
