<svg width="31" height="31" viewBox="0 0 31 31" fill="none" xmlns="http://www.w3.org/2000/svg">
<path d="M9.82617 23.1369L13.6222 26.0758C14.1121 26.5656 15.2141 26.8105 15.9489 26.8105H20.6021C22.0715 26.8105 23.6634 25.7084 24.0308 24.239L26.9697 15.2998C27.582 13.5855 26.4799 12.1161 24.6431 12.1161H19.7449C19.0102 12.1161 18.3979 11.5038 18.5204 10.6466L19.1327 6.72809C19.3776 5.626 18.6428 4.40147 17.5408 4.03411C16.5611 3.66674 15.3366 4.15656 14.8468 4.89128L9.82617 12.361" stroke="white" stroke-miterlimit="10"/>
<path d="M3.58105 23.1369V11.1364C3.58105 9.42208 4.31578 8.80981 6.03013 8.80981H7.25467C8.96902 8.80981 9.70374 9.42208 9.70374 11.1364V23.1369C9.70374 24.8513 8.96902 25.4635 7.25467 25.4635H6.03013C4.31578 25.4635 3.58105 24.8513 3.58105 23.1369Z" stroke="white" stroke-linecap="round" stroke-linejoin="round"/>
</svg>
