<svg width="20" height="21" viewBox="0 0 20 21" fill="none" xmlns="http://www.w3.org/2000/svg">
<path d="M10 0.0507812C4.48 0.0507812 0 4.53078 0 10.0508C0 15.5708 4.48 20.0508 10 20.0508C15.52 20.0508 20 15.5708 20 10.0508C20 4.53078 15.52 0.0507812 10 0.0507812ZM14.64 6.85078C14.49 8.43078 13.84 12.2708 13.51 14.0408C13.37 14.7908 13.09 15.0408 12.83 15.0708C12.25 15.1208 11.81 14.6908 11.25 14.3208C10.37 13.7408 9.87 13.3808 9.02 12.8208C8.03 12.1708 8.67 11.8108 9.24 11.2308C9.39 11.0808 11.95 8.75078 12 8.54078C12.0069 8.50897 12.006 8.47595 11.9973 8.44458C11.9886 8.41322 11.9724 8.38445 11.95 8.36078C11.89 8.31078 11.81 8.33078 11.74 8.34078C11.65 8.36078 10.25 9.29078 7.52 11.1308C7.12 11.4008 6.76 11.5408 6.44 11.5308C6.08 11.5208 5.4 11.3308 4.89 11.1608C4.26 10.9608 3.77 10.8508 3.81 10.5008C3.83 10.3208 4.08 10.1408 4.55 9.95078C7.47 8.68078 9.41 7.84078 10.38 7.44078C13.16 6.28078 13.73 6.08078 14.11 6.08078C14.19 6.08078 14.38 6.10078 14.5 6.20078C14.6 6.28078 14.63 6.39078 14.64 6.47078C14.63 6.53078 14.65 6.71078 14.64 6.85078Z" fill=""/>
</svg>
