<svg width="20" height="21" viewBox="0 0 20 21" fill="none" xmlns="http://www.w3.org/2000/svg">
<circle cx="10" cy="10.0508" r="10" fill="#00142B"/>
<path d="M4.125 7.00928V10.5509C4.125 11.1145 4.34888 11.655 4.7474 12.0535C5.14591 12.4521 5.68641 12.6759 6.25 12.6759C6.81358 12.6759 7.35409 12.4521 7.7526 12.0535C8.15112 11.655 8.375 11.1145 8.375 10.5509V7.00928H9.08333L11.9167 11.2593C12.5003 12.1936 13.2944 12.6759 14.3958 12.6759C15.0533 12.6759 15.6839 12.4147 16.1489 11.9498C16.6138 11.4849 16.875 10.8543 16.875 10.1968C16.875 9.53926 16.6138 8.90868 16.1489 8.44374C15.6839 7.97881 15.0533 7.71761 14.3958 7.71761C12.96 7.71761 12.1738 8.43019 11.9167 9.84261C11.7452 10.7847 11.2735 12.6731 10.5 15.5093" stroke="white" stroke-width="1.3" stroke-linecap="round" stroke-linejoin="round"/>
</svg>
