<svg width="8" height="6" viewBox="0 0 8 6" fill="none" xmlns="http://www.w3.org/2000/svg">
<mask id="path-1-inside-1_353_2500" fill="white">
<path d="M2.73503 5.15236C2.67824 5.15236 2.62499 5.14342 2.5753 5.12553C2.52561 5.10792 2.47947 5.07782 2.43688 5.03523L0.605396 3.20375C0.52731 3.12566 0.48997 3.02444 0.493378 2.90007C0.497069 2.77598 0.537958 2.67489 0.616044 2.59681C0.694131 2.51872 0.793514 2.47968 0.914193 2.47968C1.03487 2.47968 1.13425 2.51872 1.21234 2.59681L2.73503 4.11949L6.34475 0.509769C6.42283 0.431682 6.52406 0.392639 6.64843 0.392639C6.77252 0.392639 6.87361 0.431682 6.95169 0.509769C7.02978 0.587855 7.06882 0.688942 7.06882 0.813028C7.06882 0.937398 7.02978 1.03863 6.95169 1.11671L3.03317 5.03523C2.99058 5.07782 2.94444 5.10792 2.89475 5.12553C2.84506 5.14342 2.79182 5.15236 2.73503 5.15236V5.15236Z"/>
</mask>
<path d="M2.73503 5.15236C2.67824 5.15236 2.62499 5.14342 2.5753 5.12553C2.52561 5.10792 2.47947 5.07782 2.43688 5.03523L0.605396 3.20375C0.52731 3.12566 0.48997 3.02444 0.493378 2.90007C0.497069 2.77598 0.537958 2.67489 0.616044 2.59681C0.694131 2.51872 0.793514 2.47968 0.914193 2.47968C1.03487 2.47968 1.13425 2.51872 1.21234 2.59681L2.73503 4.11949L6.34475 0.509769C6.42283 0.431682 6.52406 0.392639 6.64843 0.392639C6.77252 0.392639 6.87361 0.431682 6.95169 0.509769C7.02978 0.587855 7.06882 0.688942 7.06882 0.813028C7.06882 0.937398 7.02978 1.03863 6.95169 1.11671L3.03317 5.03523C2.99058 5.07782 2.94444 5.10792 2.89475 5.12553C2.84506 5.14342 2.79182 5.15236 2.73503 5.15236V5.15236Z" fill="#F8FBFF"/>
<path d="M2.5753 5.12553L2.91403 4.18463L2.90925 4.18294L2.5753 5.12553ZM2.43688 5.03523L3.14398 4.32812L3.14398 4.32812L2.43688 5.03523ZM0.605396 3.20375L-0.101711 3.91086L-0.10171 3.91086L0.605396 3.20375ZM0.493378 2.90007L-0.506183 2.87033L-0.506247 2.87268L0.493378 2.90007ZM1.21234 2.59681L1.91945 1.8897L1.91945 1.8897L1.21234 2.59681ZM2.73503 4.11949L2.02792 4.8266L2.73503 5.5337L3.44213 4.8266L2.73503 4.11949ZM6.95169 1.11671L7.6588 1.82382L7.6588 1.82382L6.95169 1.11671ZM3.03317 5.03523L2.32607 4.32812L2.32607 4.32812L3.03317 5.03523ZM2.89475 5.12553L2.5608 4.18292L2.55603 4.18464L2.89475 5.12553ZM2.73503 4.15236C2.78499 4.15236 2.84716 4.16057 2.91402 4.18464L2.23658 6.06642C2.40283 6.12626 2.57148 6.15236 2.73503 6.15236V4.15236ZM2.90925 4.18294C3.01868 4.2217 3.09631 4.28045 3.14398 4.32812L1.72977 5.74234C1.86263 5.8752 2.03255 5.99414 2.24136 6.06812L2.90925 4.18294ZM3.14398 4.32812L1.3125 2.49664L-0.10171 3.91086L1.72977 5.74234L3.14398 4.32812ZM1.3125 2.49664C1.37321 2.55735 1.42448 2.63493 1.45704 2.72319C1.48863 2.80886 1.49426 2.88164 1.493 2.92745L-0.506247 2.87268C-0.516129 3.23338 -0.399569 3.613 -0.101711 3.91086L1.3125 2.49664ZM1.49294 2.9298C1.49174 2.97001 1.48355 3.03274 1.45385 3.10616C1.42334 3.18157 1.37771 3.24936 1.32315 3.30391L-0.0910625 1.8897C-0.372247 2.17088 -0.495927 2.52566 -0.50618 2.87033L1.49294 2.9298ZM1.32315 3.30391C1.26837 3.3587 1.1975 3.40722 1.1148 3.43971C1.03384 3.47152 0.962809 3.47968 0.914193 3.47968V1.47968C0.555389 1.47968 0.192886 1.60575 -0.0910625 1.8897L1.32315 3.30391ZM0.914193 3.47968C0.865576 3.47968 0.794546 3.47152 0.713587 3.43971C0.630886 3.40722 0.560016 3.35869 0.505234 3.30391L1.91945 1.8897C1.6355 1.60575 1.273 1.47968 0.914193 1.47968V3.47968ZM0.505234 3.30391L2.02792 4.8266L3.44213 3.41238L1.91945 1.8897L0.505234 3.30391ZM3.44213 4.8266L7.05185 1.21688L5.63764 -0.197338L2.02792 3.41238L3.44213 4.8266ZM7.05185 1.21688C6.99399 1.27474 6.92109 1.3233 6.83909 1.35493C6.75939 1.38567 6.6915 1.39264 6.64843 1.39264V-0.607361C6.29538 -0.607361 5.92761 -0.487304 5.63764 -0.197338L7.05185 1.21688ZM6.64843 1.39264C6.60494 1.39264 6.53682 1.38558 6.45702 1.35476C6.37496 1.32306 6.30221 1.2745 6.24459 1.21688L7.6588 -0.197338C7.36929 -0.48685 7.00193 -0.607361 6.64843 -0.607361V1.39264ZM6.24459 1.21688C6.18696 1.15925 6.1384 1.08651 6.1067 1.00444C6.07588 0.92464 6.06882 0.856518 6.06882 0.813028H8.06882C8.06882 0.459537 7.94831 0.0921752 7.6588 -0.197338L6.24459 1.21688ZM6.06882 0.813028C6.06882 0.769958 6.07579 0.702076 6.10653 0.622372C6.13816 0.540369 6.18673 0.467467 6.24459 0.409607L7.6588 1.82382C7.94877 1.53385 8.06882 1.16608 8.06882 0.813028H6.06882ZM6.24459 0.409607L2.32607 4.32812L3.74028 5.74234L7.6588 1.82382L6.24459 0.409607ZM2.32607 4.32812C2.37374 4.28045 2.45137 4.2217 2.5608 4.18294L3.22869 6.06812C3.43751 5.99414 3.60742 5.8752 3.74028 5.74234L2.32607 4.32812ZM2.55603 4.18464C2.62289 4.16057 2.68506 4.15236 2.73503 4.15236V6.15236C2.89857 6.15236 3.06722 6.12626 3.23347 6.06642L2.55603 4.18464Z" fill="#F8FBFF" mask="url(#path-1-inside-1_353_2500)"/>
</svg>
