<svg width="31" height="31" viewBox="0 0 31 31" fill="none" xmlns="http://www.w3.org/2000/svg">
<path d="M15.3596 17.1122C15.8613 17.1122 16.3582 17.0134 16.8217 16.8214C17.2852 16.6294 17.7064 16.348 18.0612 15.9932C18.4159 15.6384 18.6974 15.2172 18.8894 14.7537C19.0814 14.2902 19.1802 13.7934 19.1802 13.2916C19.1802 12.7899 19.0814 12.2931 18.8894 11.8296C18.6974 11.366 18.4159 10.9449 18.0612 10.5901C17.7064 10.2353 17.2852 9.95391 16.8217 9.76191C16.3582 9.56991 15.8613 9.47109 15.3596 9.47109C14.3463 9.47109 13.3746 9.87361 12.6581 10.5901C11.9416 11.3066 11.5391 12.2784 11.5391 13.2916C11.5391 14.3049 11.9416 15.2767 12.6581 15.9932C13.3746 16.7097 14.3463 17.1122 15.3596 17.1122V17.1122Z" stroke="white"/>
<path d="M5.09804 11.063C7.51038 0.458495 23.2212 0.470741 25.6213 11.0752C27.0295 17.2959 23.16 22.5614 19.768 25.8187C18.5827 26.9618 17.0002 27.6006 15.3535 27.6006C13.7068 27.6006 12.1243 26.9618 10.9391 25.8187C7.55936 22.5614 3.68983 17.2836 5.09804 11.063V11.063Z" stroke="white"/>
</svg>
