<svg width="38" height="38" viewBox="0 0 38 38" fill="none" xmlns="http://www.w3.org/2000/svg">
<path d="M0.00762542 38L2.57642 28.5608C0.883787 25.6592 -0.0054922 22.3592 2.55212e-05 19C2.55212e-05 8.5063 8.50632 0 19 0C29.4937 0 38 8.5063 38 19C38 29.4937 29.4937 38 19 38C15.6423 38.0054 12.3437 37.1168 9.44302 35.4255L0.00762542 38ZM12.1429 10.0852C11.8976 10.1004 11.6578 10.1651 11.438 10.2752C11.2319 10.3919 11.0438 10.5378 10.8794 10.7084C10.6514 10.9231 10.5222 11.1093 10.3835 11.2898C9.6813 12.2037 9.30358 13.3255 9.31002 14.478C9.31382 15.409 9.55702 16.3153 9.93702 17.1627C10.7141 18.8765 11.9928 20.691 13.6819 22.3725C14.0885 22.7772 14.4856 23.1838 14.9131 23.5619C17.0096 25.4077 19.5078 26.7388 22.2091 27.4493L23.2902 27.6146C23.6417 27.6336 23.9932 27.607 24.3466 27.5899C24.9 27.5613 25.4403 27.4115 25.9293 27.151C26.1781 27.0228 26.4209 26.8833 26.657 26.733C26.657 26.733 26.7387 26.6798 26.8945 26.562C27.151 26.372 27.3087 26.2371 27.5215 26.0148C27.6792 25.8514 27.816 25.6595 27.9205 25.441C28.0687 25.1313 28.2169 24.5404 28.2777 24.0483C28.3233 23.6721 28.31 23.4669 28.3043 23.3396C28.2967 23.1363 28.1276 22.9254 27.9433 22.8361L26.8375 22.3402C26.8375 22.3402 25.1845 21.6201 24.1756 21.1603C24.0692 21.1139 23.9552 21.0875 23.8393 21.0824C23.7093 21.069 23.578 21.0837 23.4541 21.1253C23.3302 21.1669 23.2167 21.2346 23.1211 21.3237V21.3199C23.1116 21.3199 22.9843 21.4282 21.6106 23.0926C21.5318 23.1985 21.4232 23.2786 21.2986 23.3226C21.1741 23.3666 21.0393 23.3725 20.9114 23.3396C20.7876 23.3065 20.6663 23.2646 20.5485 23.2142C20.3129 23.1154 20.2312 23.0774 20.0697 23.0071L20.0602 23.0033C18.9732 22.5287 17.9668 21.8877 17.0772 21.1033C16.8378 20.8943 16.6155 20.6663 16.3875 20.4459C15.64 19.73 14.9886 18.9202 14.4495 18.0367L14.3374 17.8562C14.2569 17.7349 14.1918 17.6041 14.1436 17.4667C14.0714 17.1874 14.2595 16.9632 14.2595 16.9632C14.2595 16.9632 14.7212 16.4578 14.9359 16.1842C15.1147 15.9568 15.2815 15.7202 15.4356 15.4755C15.6598 15.1145 15.7301 14.744 15.6123 14.4571C15.0803 13.1575 14.5293 11.8636 13.9631 10.5792C13.851 10.3246 13.5185 10.1422 13.2164 10.1061C13.1138 10.0947 13.0112 10.0833 12.9086 10.0757C12.6535 10.063 12.3978 10.0656 12.1429 10.0833V10.0852Z" fill="#00142B"/>
</svg>
