<svg width="31" height="31" viewBox="0 0 31 31" fill="none" xmlns="http://www.w3.org/2000/svg">
<path d="M4.41621 12.9918L4.41836 12.9909L25.6075 4.6691C25.6079 4.66891 25.6084 4.66873 25.6089 4.66854C25.7978 4.59607 26.0029 4.57619 26.2022 4.61104C26.3975 4.64518 26.5801 4.73059 26.7314 4.85841L25.9273 5.4387L11.5772 15.7937L11.069 16.1604L11.5395 16.5745L21.213 25.089C21.2139 25.0898 21.2147 25.0905 21.2156 25.0913C21.311 25.1763 21.4271 25.2348 21.5522 25.2609C21.6784 25.2872 21.8094 25.2796 21.9318 25.2388C22.0541 25.198 22.1635 25.1256 22.2487 25.0287C22.3318 24.9344 22.389 24.8202 22.4149 24.6973L26.7072 5.95578L26.9138 5.05396C26.9814 5.14686 27.0345 5.25014 27.0707 5.3603C27.1334 5.55105 27.143 5.75524 27.0985 5.95102C27.0985 5.95114 27.0985 5.95126 27.0984 5.95139L22.7707 24.7891L22.7707 24.7891L22.7696 24.7941C22.7289 24.9801 22.6399 25.152 22.5116 25.2927C22.3834 25.4334 22.2203 25.5378 22.0389 25.5955L22.0388 25.5954L22.0278 25.5991C21.9227 25.6353 21.8121 25.6533 21.7009 25.6524V25.6523L21.6948 25.6523C21.429 25.6534 21.1722 25.5557 20.9744 25.3783L20.9708 25.3752L16.287 21.2538L15.9348 20.944L15.6031 21.2757L12.4691 24.4097L12.467 24.4118C12.3654 24.5147 12.2442 24.5961 12.1106 24.6515C11.9777 24.7065 11.8352 24.7346 11.6913 24.734C11.5423 24.7314 11.3951 24.7015 11.257 24.6455C11.0566 24.5612 10.8855 24.4199 10.7649 24.239C10.6439 24.0575 10.5792 23.8443 10.5789 23.6261V16.7158V16.3059L10.177 16.2255L4.60916 15.1119L4.60916 15.1119L4.60602 15.1113C4.37016 15.0657 4.15552 14.9446 3.99451 14.7663C3.83349 14.588 3.73483 14.3622 3.7134 14.123C3.69197 13.8837 3.74895 13.6439 3.87572 13.4399C4.0025 13.2358 4.1922 13.0786 4.41621 12.9918ZM4.20086 13.6435C4.12189 13.7751 4.08812 13.9285 4.10398 14.0805C4.11261 14.2397 4.17492 14.3918 4.28143 14.5117C4.39113 14.6351 4.54038 14.7159 4.70304 14.7407L10.5084 15.9087L10.7226 15.9518L10.8998 15.8238L22.7702 7.24822L22.2945 6.37755L4.56582 13.3428C4.41339 13.3981 4.28445 13.5042 4.20086 13.6435ZM10.9565 23.6267H10.9565L10.9566 23.635C10.9589 23.7749 11.0014 23.9112 11.079 24.0276C11.1549 24.1415 11.2612 24.2316 11.3858 24.2878C11.5204 24.3506 11.6712 24.37 11.8175 24.3434C11.9644 24.3167 12.0992 24.2449 12.2033 24.1381L15.2656 21.0758L15.6416 20.6998L15.2431 20.3476L11.7876 17.2939L10.9565 16.5595V17.6686V23.6267Z" fill="#00142B" stroke="white"/>
</svg>
